<mxfile host="app.diagrams.net" modified="2023-06-15T03:26:30.931Z" agent="Mozilla/5.0 (Macintosh; Intel Mac OS X 10_15_7) AppleWebKit/537.36 (KHTML, like Gecko) Chrome/114.0.0.0 Safari/537.36" etag="4uF1HGD4u3bTBlC-gm0M" version="21.3.8" type="github">
  <diagram id="prtHgNgQTEPvFCAcTncT" name="Page-1">
    <mxGraphModel dx="954" dy="603" grid="1" gridSize="10" guides="1" tooltips="1" connect="1" arrows="1" fold="1" page="1" pageScale="1" pageWidth="827" pageHeight="1169" math="0" shadow="0">
      <root>
        <mxCell id="0" />
        <mxCell id="1" parent="0" />
        <mxCell id="HY11cWV26o9BjJ6a1peC-2" value="&lt;font style=&quot;font-size: 11px;&quot;&gt;PC&lt;br style=&quot;font-size: 11px;&quot;&gt;&lt;font style=&quot;font-size: 11px;&quot;&gt;（综合站、专业市场、会员办公室……&lt;br style=&quot;font-size: 11px;&quot;&gt;）&lt;/font&gt;&lt;/font&gt;" style="rounded=0;whiteSpace=wrap;html=1;fillColor=#ffe6cc;strokeColor=#d79b00;" vertex="1" parent="1">
          <mxGeometry x="160" y="100" width="120" height="60" as="geometry" />
        </mxCell>
        <mxCell id="HY11cWV26o9BjJ6a1peC-3" value="H5&lt;br&gt;（手机版、改版手机版、找布小程序……）" style="rounded=0;whiteSpace=wrap;html=1;fillColor=#ffe6cc;strokeColor=#d79b00;" vertex="1" parent="1">
          <mxGeometry x="300" y="100" width="120" height="60" as="geometry" />
        </mxCell>
        <mxCell id="HY11cWV26o9BjJ6a1peC-4" value="APP&lt;br&gt;（TNC、QFC、YouBu）" style="rounded=0;whiteSpace=wrap;html=1;fillColor=#ffe6cc;strokeColor=#d79b00;" vertex="1" parent="1">
          <mxGeometry x="450" y="100" width="120" height="60" as="geometry" />
        </mxCell>
        <mxCell id="HY11cWV26o9BjJ6a1peC-5" value="外部应用&lt;br&gt;（纺织聊、元宇宙……）" style="rounded=0;whiteSpace=wrap;html=1;fillColor=#ffe6cc;strokeColor=#d79b00;" vertex="1" parent="1">
          <mxGeometry x="590" y="100" width="120" height="60" as="geometry" />
        </mxCell>
        <mxCell id="HY11cWV26o9BjJ6a1peC-7" value="mse-front-sso" style="rounded=0;whiteSpace=wrap;html=1;fillColor=#f8cecc;strokeColor=#b85450;" vertex="1" parent="1">
          <mxGeometry x="300" y="230" width="120" height="60" as="geometry" />
        </mxCell>
        <mxCell id="HY11cWV26o9BjJ6a1peC-8" value="第三方服务&lt;br&gt;（云信IM、阿里云验证）" style="whiteSpace=wrap;html=1;fillColor=#d5e8d4;strokeColor=#82b366;" vertex="1" parent="1">
          <mxGeometry x="630" y="230" width="80" height="200" as="geometry" />
        </mxCell>
        <mxCell id="HY11cWV26o9BjJ6a1peC-12" value="mse-provider&lt;br&gt;（qfc、sso）" style="whiteSpace=wrap;html=1;fillColor=#e1d5e7;strokeColor=#9673a6;" vertex="1" parent="1">
          <mxGeometry x="300" y="370" width="120" height="60" as="geometry" />
        </mxCell>
        <mxCell id="HY11cWV26o9BjJ6a1peC-13" value="LoginSession Redis" style="rounded=0;whiteSpace=wrap;html=1;fillColor=#d5e8d4;strokeColor=#82b366;" vertex="1" parent="1">
          <mxGeometry x="430" y="230" width="80" height="200" as="geometry" />
        </mxCell>
        <mxCell id="HY11cWV26o9BjJ6a1peC-15" value="soa-mcenter" style="whiteSpace=wrap;html=1;fillColor=#d5e8d4;strokeColor=#82b366;" vertex="1" parent="1">
          <mxGeometry x="530" y="230" width="80" height="200" as="geometry" />
        </mxCell>
        <mxCell id="HY11cWV26o9BjJ6a1peC-16" value="soa-api" style="whiteSpace=wrap;html=1;fillColor=#e1d5e7;strokeColor=#9673a6;" vertex="1" parent="1">
          <mxGeometry x="160" y="370" width="120" height="60" as="geometry" />
        </mxCell>
        <mxCell id="HY11cWV26o9BjJ6a1peC-23" value="客户端" style="strokeWidth=2;html=1;shape=mxgraph.flowchart.annotation_1;align=left;pointerEvents=1;fillColor=#ffe6cc;strokeColor=#d79b00;" vertex="1" parent="1">
          <mxGeometry x="80" y="80" width="50" height="100" as="geometry" />
        </mxCell>
        <mxCell id="HY11cWV26o9BjJ6a1peC-25" value="业务服务" style="strokeWidth=2;html=1;shape=mxgraph.flowchart.annotation_1;align=left;pointerEvents=1;fillColor=#f8cecc;strokeColor=#b85450;" vertex="1" parent="1">
          <mxGeometry x="80" y="210" width="50" height="100" as="geometry" />
        </mxCell>
        <mxCell id="HY11cWV26o9BjJ6a1peC-26" value="数据服务" style="strokeWidth=2;html=1;shape=mxgraph.flowchart.annotation_1;align=left;pointerEvents=1;fillColor=#e1d5e7;strokeColor=#9673a6;" vertex="1" parent="1">
          <mxGeometry x="80" y="350" width="50" height="100" as="geometry" />
        </mxCell>
        <mxCell id="HY11cWV26o9BjJ6a1peC-27" value="www、mkt、mobile、member-new" style="whiteSpace=wrap;html=1;fillColor=#f8cecc;strokeColor=#b85450;" vertex="1" parent="1">
          <mxGeometry x="160" y="230" width="120" height="60" as="geometry" />
        </mxCell>
      </root>
    </mxGraphModel>
  </diagram>
</mxfile>
